<?xml version="1.0" encoding="UTF-8" standalone="no"?>
<!-- Created with Inkscape (http://www.inkscape.org/) -->

<svg
   width="1280"
   height="720"
   viewBox="0 0 338.66667 190.5"
   version="1.1"
   id="svg5"
   inkscape:version="1.1 (c68e22c387, 2021-05-23)"
   sodipodi:docname="backgroundLarge.svg"
   inkscape:export-filename="C:\Users\annar\code\myApps\textAdventure\img\backgroundLarge.png"
   inkscape:export-xdpi="1024.01"
   inkscape:export-ydpi="1024.01"
   xmlns:inkscape="http://www.inkscape.org/namespaces/inkscape"
   xmlns:sodipodi="http://sodipodi.sourceforge.net/DTD/sodipodi-0.dtd"
   xmlns:xlink="http://www.w3.org/1999/xlink"
   xmlns="http://www.w3.org/2000/svg"
   xmlns:svg="http://www.w3.org/2000/svg">
  <sodipodi:namedview
     id="namedview7"
     pagecolor="#505050"
     bordercolor="#eeeeee"
     borderopacity="1"
     inkscape:pageshadow="0"
     inkscape:pageopacity="0"
     inkscape:pagecheckerboard="0"
     inkscape:document-units="mm"
     showgrid="false"
     inkscape:zoom="0.52890625"
     inkscape:cx="640"
     inkscape:cy="360.17725"
     inkscape:window-width="1656"
     inkscape:window-height="1366"
     inkscape:window-x="895"
     inkscape:window-y="1"
     inkscape:window-maximized="0"
     inkscape:current-layer="layer1"
     inkscape:snap-global="false"
     fit-margin-top="0"
     fit-margin-left="0"
     fit-margin-right="0"
     fit-margin-bottom="0"
     units="px"
     height="1920px"
     inkscape:snap-page="true"
     width="1280px"
     inkscape:snap-nodes="false"
     inkscape:snap-bbox="true" />
  <defs
     id="defs2">
    <linearGradient
       inkscape:collect="always"
       id="linearGradient38092">
      <stop
         style="stop-color:#550000;stop-opacity:1;"
         offset="0"
         id="stop38088" />
      <stop
         style="stop-color:#1c0010;stop-opacity:1"
         offset="1"
         id="stop38090" />
    </linearGradient>
    <linearGradient
       inkscape:collect="always"
       id="linearGradient34215">
      <stop
         style="stop-color:#ff0000;stop-opacity:1"
         offset="0"
         id="stop34211" />
      <stop
         style="stop-color:#ff0000;stop-opacity:0"
         offset="1"
         id="stop34213" />
    </linearGradient>
    <linearGradient
       inkscape:collect="always"
       id="linearGradient175810">
      <stop
         style="stop-color:#2e3131;stop-opacity:1;"
         offset="0"
         id="stop175806" />
      <stop
         style="stop-color:#2e2b31;stop-opacity:0.19028339"
         offset="1"
         id="stop175808" />
    </linearGradient>
    <radialGradient
       inkscape:collect="always"
       xlink:href="#linearGradient175810"
       id="radialGradient175812"
       cx="98.877213"
       cy="148.46652"
       fx="98.877213"
       fy="148.46652"
       r="227.10513"
       gradientTransform="matrix(6.6347366,0.62351075,-0.37957819,1.9022647,-191.6301,-54.133179)"
       gradientUnits="userSpaceOnUse" />
    <linearGradient
       inkscape:collect="always"
       xlink:href="#linearGradient34215"
       id="linearGradient34217"
       x1="105.18555"
       y1="108.69608"
       x2="392.92569"
       y2="50.679367"
       gradientUnits="userSpaceOnUse" />
    <radialGradient
       inkscape:collect="always"
       xlink:href="#linearGradient38092"
       id="radialGradient38094"
       cx="521.51056"
       cy="373.96667"
       fx="521.51056"
       fy="373.96667"
       r="466.87133"
       gradientTransform="matrix(1.0649816,-0.31382497,0.25696396,0.87202077,-119.554,200.5789)"
       gradientUnits="userSpaceOnUse" />
  </defs>
  <g
     inkscape:label="Layer 1"
     inkscape:groupmode="layer"
     id="layer1"
     transform="translate(414.02261,804.97534)"
     style="display:inline">
    <rect
       style="display:inline;fill:#850000;fill-opacity:1;stroke:none;stroke-width:0.188689"
       id="rect57860"
       width="340.06125"
       height="192.66972"
       x="-414.44315"
       y="-806.55725" />
  </g>
  <g
     inkscape:groupmode="layer"
     id="layer2"
     inkscape:label="Layer 2"
     transform="translate(414.02261,804.97534)"
     style="display:inline">
    <path
       id="path80797"
       style="fill:url(#radialGradient175812);fill-opacity:1;stroke:none;stroke-width:0.0971694px;stroke-linecap:butt;stroke-linejoin:miter;stroke-opacity:1"
       d="m 25.873047,-4.4199219 c -0.507175,-0.012813 -0.979463,-0.013165 -1.455078,0.00195 -6.157947,0.2415875 -8.353516,3.3847657 -8.353516,3.3847657 0,0 31.326457,19.0234842 57.833985,22.7343752 26.507342,3.710778 62.653842,6.183596 88.357422,15.460937 25.70385,9.277191 82.44531,33.595703 82.44531,33.595703 0,0 -10.32302,18.90131 -91.27929,-12.568359 C 125.93896,47.506127 66.668676,43.965079 35.341797,81.074219 4.0148803,118.18321 34.539327,126.84307 0.80273438,148.49023 -11.246248,164.57069 15.261719,146.63477 15.261719,146.63477 c 0,0 5.623675,9.89527 -13.6542971,23.50195 C -17.671117,183.74313 0,182.50586 0,182.50586 c 0,0 7.2291814,0.66486 20.884766,3.13867 13.655282,-4.32964 18.475234,-19.83665 44.982422,-18.59961 0.803451,-3.09241 39.358532,0.61768 56.226562,-6.18554 16.86799,-6.80346 32.9343,0.61763 93.17773,-9.89649 60.24428,-10.51423 75.50331,-16.07911 97.19141,-18.55273 21.68742,-2.4742 60.24275,-9.89611 83.53711,-0.61914 23.29429,9.27711 29.72211,7.42099 69.88477,47.0039 32.8473,32.37415 30.77369,34.95688 28.92773,34.82422 l 18.7431,-0.0694 C 495.88446,198.70643 465.08178,173.84841 450.62305,157.76758 436.16431,141.68712 413.67416,130.55327 404.03516,127.46094 394.39649,124.36853 375.92079,119.42 362.26562,110.14258 348.61053,100.86535 337.36531,75.507546 257.84375,66.230469 248.20475,64.37491 210.45183,50.769491 193.58398,41.492188 176.71603,32.214846 135.74831,20.464034 114.06055,19.845703 92.372786,19.227221 58.637007,8.2428064 40.162109,-0.41601562 34.100087,-3.2571621 29.42293,-4.2970872 25.873047,-4.4199219 Z m 1229.371053,0 c -2.937,0.1228347 -6.8068,1.1627598 -11.8222,4.00390628 -15.2852,8.65882202 -43.1972,19.64323662 -61.1407,20.26171862 -17.9435,0.618331 -51.8391,12.369143 -65.7949,21.646485 -13.9558,9.277303 -45.191,22.882722 -53.166,24.738281 -65.79268,9.277077 -75.09675,34.634881 -86.39452,43.912111 -11.29776,9.27742 -26.58191,14.22595 -34.55664,17.31836 -7.97488,3.09233 -26.58422,14.22618 -38.54687,30.30664 -11.96251,16.08083 -45.18806,47.62346 -59.8086,62.4668 l 23.25,-6.61524 c -1.52738,0.13266 -3.24283,-2.45007 23.9336,-34.82422 33.22896,-39.58291 38.54545,-37.72679 57.81835,-47.0039 19.27261,-9.27697 51.17198,-1.85506 69.11528,0.61914 17.9438,2.47362 30.5684,8.0385 80.4121,18.55273 49.8428,10.51412 63.1358,3.09303 77.0918,9.89649 13.9559,6.80322 45.8547,3.09313 46.5195,6.18554 21.9308,-1.23704 25.919,14.26997 37.2168,18.59961 11.298,-2.47381 17.2793,-3.13867 17.2793,-3.13867 0,0 14.6201,1.23727 -1.3301,-12.36914 -15.9497,-13.60668 -11.2969,-23.50195 -11.2969,-23.50195 0,0 21.9297,17.93592 11.961,1.85546 -27.9122,-21.64716 -2.6558,-30.30702 -28.5742,-67.416011 -25.9185,-37.10914 -74.9573,-33.568092 -97.6954,-22.884766 -66.9798,31.469669 -75.5195,12.568359 -75.5195,12.568359 0,0 46.9446,-24.318512 68.2109,-33.595703 21.2661,-9.277341 51.1727,-11.750159 73.1036,-15.460937 21.9311,-3.710891 47.8496,-22.7343751 47.8496,-22.7343751 0,0 -1.8173,-3.1431782 -6.9121,-3.3847657 -0.3934,-0.015118 -0.7836,-0.014766 -1.2032,-0.00195 z m -987.64449,2.4707031 v 0.00781 h 0.01 c -10e-5,-8.35e-5 -0.01,-0.00781 -0.01,-0.00781 z m 0.01,0.00781 c 0.0268,0.024731 4.01724,3.6953124 10.40429,3.6953124 6.41019,0 12.81778,5.415257 17.625,12.2011714 4.80756,6.785462 17.62891,16.03711 17.62891,16.03711 0,0 -1.60608,-1.232341 -23.23828,-4.933594 -21.6319,-3.701254 -15.21955,-6.786518 -24.83399,-9.253906 -9.6136,-2.467389 -19.22783,1.233675 -39.25781,0 -20.02877,-1.233865 -29.64219,-5.553403 -49.67188,-3.085938 -1.59908,0.186822 -3.0888,0.383789 -4.60742,0.552734 -6.58242,-1.301215 -12.20387,-2.29114 -16.22461,-3.019531 C 141.81354,7.7845264 121.78711,-1.3320312 121.78711,-1.3320312 l -16.02539,0.61914058 c 0,0 12.01752,8.49857972 52.07617,14.05078162 1.86796,0.258784 3.71287,0.570494 5.55664,0.867187 -13.13544,1.387427 -22.63655,1.794603 -28.79101,0.373047 C 126.59224,12.727404 104.1582,-0.70507812 104.1582,-0.70507812 l -15.2207,0.61523437 c 0,0 31.24552,11.58411975 39.25781,15.90234375 8.01143,4.318186 25.63837,3.699773 31.2461,1.232422 1.58316,-0.696756 5.16418,-1.32695 9.47851,-1.841797 35.39275,6.77178 66.50054,21.752502 96.27539,41.324219 32.84905,21.590815 84.15792,12.909819 105.78907,15.99414 21.63242,3.084322 12.7846,25.953353 25.60351,38.291016 12.81868,12.33785 20.83055,18.50759 31.24609,14.80664 10.41502,-3.70159 8.00999,-4.31805 19.22657,4.31836 11.21673,8.63649 43.26629,26.52509 54.48242,33.31055 11.21669,6.78569 34.45083,35.16402 43.26367,38.86523 8.81265,3.70152 32.17801,-27.2786 44.99666,-14.32355 12.81895,12.95425 40.72787,58.73816 60.75725,59.97199 20.02934,1.2336 32.84841,6.16828 48.07031,11.10351 12.59414,-4.93523 23.20195,-9.86991 39.77344,-11.10351 16.57134,-1.23383 53.69309,-8.63559 64.29882,-21.58984 10.60566,-12.95505 15.90603,-20.35708 23.19727,-24.0586 7.29143,-3.70121 26.51482,-32.07954 35.79492,-38.86523 9.27988,-6.78546 35.796,-24.67406 45.07617,-33.31055 9.28033,-8.63641 7.28927,-8.01995 15.90625,-4.31836 8.61737,3.70095 15.24591,-2.46879 25.85157,-14.80664 10.60573,-12.337663 3.28575,-35.206694 21.18359,-38.291016 17.89663,-3.084321 60.34741,5.596675 87.52541,-15.99414 24.6344,-19.571717 50.3719,-34.552439 79.6543,-41.324219 3.5694,0.514847 6.5339,1.145041 7.8437,1.841797 4.6397,2.467351 19.2213,3.085764 25.8496,-1.232422 6.629,-4.318224 32.4825,-15.90234375 32.4825,-15.90234375 l -12.5938,-0.61523437 c 0,0 -18.5611,13.43248212 -25.1894,15.28320312 -5.092,1.421556 -12.9525,1.01438 -23.8204,-0.373047 1.5257,-0.296693 3.0521,-0.608403 4.5977,-0.867187 33.1428,-5.5522019 43.0859,-14.05078162 43.0859,-14.05078162 l -13.2597,-0.61914058 c 0,0 -16.5693,9.1165576 -27.8379,11.5839842 -3.3265,0.728391 -7.9779,1.718316 -13.4238,3.019531 -1.2565,-0.168945 -2.4895,-0.365912 -3.8125,-0.552734 -16.5717,-2.467465 -24.5249,1.852073 -41.0957,3.085938 -16.5722,1.233675 -24.5267,-2.467389 -32.4805,0 -7.9548,2.467388 -2.6496,5.552652 -20.5469,9.253906 -17.8976,3.701253 -19.2246,4.933594 -19.2246,4.933594 0,0 10.6064,-9.251648 14.584,-16.03711 3.9773,-6.7859148 9.2803,-12.2011718 14.584,-12.2011718 5.2846,0 8.5856,-3.6710061 8.6074,-3.6953124 l -26.5078,0.6171874 c 0,0 -5.3008,10.9686306 -5.3008,14.6699218 -2.6518,3.701405 -3.3145,-14.05078112 -3.3145,-14.05078112 l -3.9765,-0.61914068 c 0,0 1.3254,20.8386878 -1.9883,26.3906248 -3.3147,5.552088 -19.88716,18.506657 -29.83008,24.058594 -9.94318,5.552126 -31.15321,18.505794 -34.4668,30.226562 -3.31453,11.720807 9.9403,17.888449 -5.96875,20.972658 -15.90799,3.08451 -15.90602,6.78847 -29.82617,9.25586 -13.92045,2.46754 -11.26895,4.93446 -13.25781,7.40234 -1.98841,2.46716 -5.30282,4.31836 -9.94336,4.31836 -4.6399,0 -7.29254,8.0175 -12.59571,11.71875 -5.30256,3.70152 -5.30129,12.33795 -15.24414,20.35742 -2.1843,1.76157 -2.7686,2.37517 -2.38086,2.21485 -2.40071,1.37272 -4.60281,2.57752 -6.23632,3.33789 -9.65968,4.49469 -18.1594,18.60012 -21.61328,23.43164 -5.24402,1.28489 -14.58535,4.25587 -18.12696,5.7207 -5.97044,2.46985 -25.87396,14.81836 -35.16211,14.81836 -9.28796,0 -27.86487,3.70633 -37.8164,0.61914 -9.95127,-3.08697 -30.51731,-4.93945 -36.48828,-4.93945 18.57618,-1.85208 13.268,-6.79229 15.92187,-9.26172 2.65368,-2.46996 23.2213,-8.6442 29.85547,-14.81836 6.63436,-6.17412 19.24058,-16.67015 27.86523,-20.99219 8.62466,-4.32219 10.61339,-16.67092 8.62305,-19.75781 -1.99041,-3.08731 10e-4,-9.87857 7.29883,-16.05273 7.29789,-6.17428 7.29885,-22.227951 19.24023,-29.019536 10.6427,-6.052611 29.18122,-19.45591 43.42188,-24.923828 -8.94724,2.01207 -17.29964,4.851037 -23.51953,8.871094 -11.94153,6.791433 -19.90235,12.347656 -19.90235,12.347656 0,-8.644006 19.23943,-18.520126 22.55664,-16.667968 6.63428,-3.086967 55.95662,-37.803286 95.34961,-51.453126 0,0 -17.28085,-1.882701 -21.26172,2.439454 -3.98022,6.558689 -76.08013,45.465604 -80.06054,44.691406 -6.49421,-1.263043 -20.56683,12.348391 -23.22071,15.435547 -2.65368,3.087042 -7.96162,11.112948 -10.61523,17.287109 -2.65368,6.174202 -11.27601,19.139912 -13.92969,21.609372 -2.6536,2.46974 -5.97138,8.64299 -6.63476,12.96485 -0.66308,4.32219 -1.99027,15.43799 -7.96094,19.75976 -5.97082,4.32163 -10.61729,8.64268 -14.59766,13.58203 -3.98056,4.93917 -13.92933,14.19932 -25.87109,19.13868 -11.94172,4.93923 -13.26998,9.88016 -19.9043,11.11523 -4.15245,0.77288 -6.31686,1.011 -7.67578,1.11914 0.11259,-4.77704 0.13458,-9.5149 -0.10742,-13.47461 3.65502,-1.12631 10.78181,-3.74889 11.76367,-7.4043 11.94187,-3.70416 28.52735,-12.96289 28.52735,-12.96289 0,0 7.29727,-0.61857 11.9414,-7.41015 4.64394,-6.79151 3.98047,-8.02539 3.98047,-8.02539 0,0 14.59584,-21.60991 19.24023,-25.93164 -11.94217,7.40904 -22.55664,24.69531 -22.55664,24.69531 0,0 -10.61424,-1.23415 -15.92187,13.58398 -4.64383,3.70439 -27.20117,12.9668 -27.20117,12.9668 0,0 -6.63287,-4.32434 -10.61328,0.61523 -0.2208,0.27399 -0.41214,0.71204 -0.58985,1.21485 -0.21756,-0.515 -0.45714,-0.93623 -0.72851,-1.21485 -4.81115,-4.93957 -12.82813,-0.61523 -12.82813,-0.61523 0,0 -27.26416,-9.26241 -32.87695,-12.9668 -6.41507,-14.81813 -19.2461,-13.58398 -19.2461,-13.58398 0,0 -12.82781,-17.28627 -27.26171,-24.69531 5.61339,4.32173 23.2539,25.93164 23.2539,25.93164 0,0 -0.80055,1.23388 4.8125,8.02539 5.61309,6.79158 14.4336,7.41015 14.4336,7.41015 0,0 20.04671,9.25873 34.48046,12.96289 1.25802,3.8751 10.66483,6.54788 14.76368,7.54688 -0.19438,3.94252 -0.18075,8.63047 -0.0879,13.36719 -1.3182,-0.0622 -3.93986,-0.24183 -9.86524,-1.1543 -8.01861,-1.23507 -9.62511,-6.176 -24.05859,-11.11523 -14.43364,-4.93936 -26.45854,-14.19951 -31.26953,-19.13868 -4.81115,-4.93935 -10.42783,-9.2604 -17.64454,-13.58203 -7.21662,-4.32177 -8.81956,-15.43757 -9.62109,-19.75976 -0.80175,-4.32186 -4.81219,-10.49511 -8.01953,-12.96485 -3.20753,-2.46946 -13.62844,-15.43517 -16.83594,-21.609372 -3.20734,-6.174161 -9.62281,-14.200067 -12.83008,-17.287109 -3.20764,-3.087156 -20.21708,-16.69859 -28.0664,-15.435547 -4.81096,0.774198 -91.95486,-38.132717 -96.76563,-44.691406 -4.81152,-4.322155 -25.69922,-2.439454 -25.69922,-2.439454 47.61302,13.64984 107.22753,48.366159 115.2461,51.453126 4.00932,-1.852158 27.26367,8.023962 27.26367,16.667968 0,0 -9.62135,-5.556223 -24.05469,-12.347656 -7.51767,-4.020057 -17.6154,-6.859024 -28.42969,-8.871094 17.21216,5.467918 39.62095,18.871217 52.48438,24.923828 14.43318,6.791585 14.43324,22.845256 23.25391,29.019536 8.82066,6.17416 11.22782,12.96542 8.82226,16.05273 -2.40567,3.08689 -0.002,15.43562 10.42188,19.75781 10.42439,4.32204 25.66295,14.81807 33.68164,20.99219 8.01861,6.17416 32.87664,12.3484 36.08398,14.81836 3.20776,2.46943 -3.20822,7.40964 19.24414,9.26172 -7.21689,0 -32.07389,1.85248 -44.10156,4.93945 -12.02812,3.08719 -33.14397,-2.62452 -44.37011,-2.62452 -11.22622,0 -36.62063,-10.34313 -43.83692,-12.81298 -4.28043,-1.46483 -15.57189,-4.43581 -21.91016,-5.7207 -4.17467,-4.83152 -14.44564,-18.93695 -26.12109,-23.43164 -1.97435,-0.76037 -4.63538,-1.96517 -7.53711,-3.33789 0.46847,0.16032 -0.2391,-0.45328 -2.87891,-2.21485 -12.01765,-8.01947 -12.01672,-16.6559 -18.42578,-20.35742 -6.40981,-3.70125 -9.61662,-11.71875 -15.22461,-11.71875 -5.60882,0 -9.61226,-1.8512 -12.01562,-4.31836 -2.4039,-2.46788 0.79982,-4.9348 -16.02539,-7.40234 -16.82483,-2.46739 -16.82346,-6.17135 -36.05078,-9.25586 -19.22892,-3.084209 -3.20671,-9.251851 -7.21289,-20.972658 C 390.97947,67.630794 365.34401,54.677126 353.32617,49.125 341.30856,43.573063 321.27778,30.618494 317.27148,25.066406 313.26621,19.514469 314.86719,-1.3242188 314.86719,-1.3242188 l -4.8086,0.61914068 c 0,0 -0.79886,17.75218612 -4.0039,14.05078112 0,-3.7012912 -6.40821,-14.6699218 -6.40821,-14.6699218 z M 506.70312,63.753906 c -2.10183,-0.667918 -4.13311,-1.221044 -6.05273,-1.625 -61.22222,-10.541858 -61.19531,-3.080078 -61.19531,-3.080078 0,0 36.53723,-1.009 67.24804,4.705078 z m 350.72071,0 c 25.40889,-5.714078 55.63867,-4.705078 55.63867,-4.705078 0,0 0.0226,-7.46178 -50.63086,3.080078 -1.58816,0.403956 -3.26881,0.957082 -5.00781,1.625 z M 1055.2422,-1.9414062 h 0.01 v -0.00781 c 0,0 -0.01,0.00773 -0.01,0.00781 z m -512.09181,1.23632808 c 24.8578,3.08700472 32.07723,25.78819712 38.49219,43.07617212 6.41491,17.287483 36.8855,20.992488 55.32812,25.314453 18.34231,4.298343 61.12113,8.582053 61.58985,8.628906 l 0.002,0.01563 c 0,0 0.0678,-0.0077 0.0684,-0.0078 7.6e-4,7.6e-5 0.084,0.0078 0.084,0.0078 l 0.002,-0.01953 c 0.46798,-0.05656 35.7716,-4.3316 50.92968,-8.625 15.25875,-4.321965 40.46991,-8.02697 45.77735,-25.314453 5.30755,-17.287975 11.27955,-39.9891674 31.8457,-43.07617212 -27.86389,1.23484724 -72.97656,0.61523437 -72.97656,0.61523437 C 737.70723,6.7018539 738.36909,27.554402 736.37891,33.111328 734.40252,38.629053 733.71777,63.617342 698.63086,65.78125 656.22295,63.617213 655.39669,38.629037 653.00781,33.111328 650.60222,27.554402 651.40212,6.7018539 631.35547,-0.08984375 c 0,0 -54.52684,0.61961287 -88.20508,-0.61523437 z M 189.20703,14.035156 c 4.86229,0.04067 8.7914,0.390897 10.29297,1.16211 4.80771,2.467464 21.62973,3.083984 36.05078,3.083984 14.42079,0 20.0293,1.233963 20.0293,4.318359 0,3.084586 5.61021,6.785412 15.22461,7.402344 9.61345,0.616895 16.823,8.636291 27.23828,16.039063 10.41475,7.40262 56.19639,9.245404 49.78711,19.732422 C 293.23155,74.438609 265.19312,43.573698 232.3457,30.619141 211.94672,22.574492 192.49152,17.626665 177.40039,14.4375 c 4.05037,-0.268309 8.17659,-0.4288 11.80664,-0.402344 z m 930.90037,0 c 3.0034,-0.02646 6.4183,0.134035 9.7696,0.402344 -12.4858,3.189165 -28.5836,8.136992 -45.461,16.181641 -27.1764,12.954557 -50.3723,43.819468 -95.54491,35.154297 -5.30256,-10.487018 32.57451,-12.329802 41.19141,-19.732422 8.6171,-7.402772 14.5813,-15.422168 22.5352,-16.039063 7.9545,-0.616932 12.5976,-4.317758 12.5976,-7.402344 0,-3.084396 4.639,-4.318359 16.5703,-4.318359 11.9314,0 25.8504,-0.61652 29.8282,-3.083984 1.2423,-0.771213 4.4908,-1.121442 8.5136,-1.16211 z M 105.60156,66.720703 c 7.72305,-0.02903 15.48931,1.455417 22.43555,1.582031 15.74313,0.279534 60.10552,5.273296 73.33398,11.1875 24.90085,11.13275 32.93311,3.709423 44.17774,-1.238281 11.24632,-4.948006 41.77231,-3.710029 53.82031,-1.236328 12.04913,2.473852 39.60367,37.458355 49.24219,42.406255 9.63878,4.94796 13.65562,-3.71361 20.88476,3.08984 -40.16228,-1.85571 -90.76767,11.13539 -106.02929,15.46484 -15.26136,4.32945 -39.3604,-0.002 -71.49024,7.41992 -32.12969,7.42194 -134.398652,15.4629 -170.544919,15.4629 36.146267,-24.73947 33.071116,-61.261388 61.988281,-86.619146 6.777524,-5.943458 14.457949,-7.496854 22.181638,-7.519531 z m 1083.67964,0 c 6.3902,0.02268 12.7442,1.576073 18.3516,7.519531 23.9247,25.357758 21.3793,61.879676 51.2852,86.619146 -29.9059,0 -114.5188,-8.04096 -141.1016,-15.4629 -26.5828,-7.42185 -46.5218,-3.09047 -59.1484,-7.41992 -12.6268,-4.32945 -54.4941,-17.32055 -87.72269,-15.46484 5.98114,-6.80345 9.30262,1.85812 17.27735,-3.08984 7.97457,-4.9479 30.77314,-39.932403 40.74214,-42.406255 9.968,-2.473701 35.2226,-3.711678 44.5274,1.236328 9.3034,4.947704 15.9508,12.371031 36.5527,1.238281 10.9447,-5.914204 47.6487,-10.907966 60.6739,-11.1875 5.7469,-0.126614 12.1727,-1.611058 18.5624,-1.582031 z M 462.51172,127.69141 c 4.20616,-0.2072 10.48785,1.55075 14.99414,7.79687 5.8639,8.12674 21.4729,18.15124 24.77734,19.84375 -15.98736,-7.61242 -41.99466,-22.19754 -44.00586,-24.7793 -1.05112,-1.34925 0.96335,-2.70674 4.23438,-2.86132 z m 431.47461,0 c 2.70622,0.15458 4.37354,1.51207 3.5039,2.86132 -1.66401,2.58176 -23.18087,17.16688 -36.4082,24.7793 2.73396,-1.69251 15.64834,-11.71701 20.5,-19.84375 3.72839,-6.24612 8.92407,-8.00407 12.4043,-7.79687 z m -555.28906,13.79687 c -11.90484,0.0557 -23.34519,2.20778 -33.46094,8.23828 -24.89983,14.84334 -28.1139,17.31836 -66.66992,17.31836 -14.00251,0 -26.25639,-0.4033 -36.75391,-0.78125 10.90201,0.86616 15.09226,5.33019 29.52344,5.72852 22.49121,0.61863 60.24295,-3.09204 76.30859,-16.08008 16.06401,-12.98808 68.27676,-6.18456 75.50586,-3.71094 7.22903,2.47401 24.09675,1.85641 37.75195,19.17383 13.65513,17.31761 20.08361,11.74792 32.93555,37.72461 0,-14.84394 -12.0495,-28.45014 -22.49219,-34.63477 -10.44185,-6.18504 -12.0482,-19.79123 -40.16211,-25.35742 -16.69247,-3.30523 -35.08549,-7.71552 -52.48632,-7.61914 z m 657.72851,0 c -14.3966,-0.0964 -29.61493,4.31391 -43.42578,7.61914 -23.2602,5.56619 -24.58739,19.17238 -33.22656,25.35742 -8.63989,6.18463 -18.60938,19.79083 -18.60938,34.63477 10.63325,-25.97669 15.95029,-20.407 27.24805,-37.72461 11.29761,-17.31742 25.25523,-16.69982 31.23633,-19.17383 5.98087,-2.47362 49.17996,-9.27714 62.47066,3.71094 13.2921,12.98804 44.5246,16.69871 63.1329,16.08008 11.9397,-0.39833 15.4078,-4.86236 24.4277,-5.72852 -8.6853,0.37795 -18.8251,0.78125 -30.4102,0.78125 -31.8994,0 -34.5571,-2.47502 -55.1582,-17.31836 -8.3693,-6.0305 -17.836,-8.18261 -27.68552,-8.23828 z m -819.47656,24.20508 c -5.63872,0.0762 -10.03272,0.44921 -13.08594,1.35352 -10.44249,3.09233 -29.72285,5.56706 -27.3125,15.46289 2.40926,9.89563 2.41072,16.69926 1.60742,20.41015 -0.80284,3.71101 4.8196,-9.89639 5.62305,-18.55469 0.8036,-8.65927 -6.42391,-6.185 30.52539,-14.84375 10.35224,-2.42596 17.61097,-3.35919 23.19727,-3.40039 -8.03267,-0.28306 -14.91598,-0.5039 -20.55469,-0.42773 z m 953.30078,0 c -4.6652,-0.0762 -10.36,0.14467 -17.0059,0.42773 4.6218,0.0412 10.6283,0.97443 19.1934,3.40039 30.5703,8.65875 24.589,6.18448 25.2539,14.84375 0.6648,8.6583 5.3167,22.2657 4.6524,18.55469 -0.6647,-3.71089 -0.6633,-10.51452 1.33,-20.41015 1.9944,-9.89583 -13.9579,-12.37056 -22.5976,-15.46289 -2.5262,-0.90431 -6.161,-1.27735 -10.8262,-1.35352 z m -431.61914,17.24609 c 0.23432,0.0511 0.88281,0.20508 0.88281,0.20508 l -0.79883,12.95313 c -0.004,3e-5 -0.0823,0.006 -0.084,0.006 -0.001,-1e-5 -0.0659,-0.004 -0.0684,-0.004 l -0.66211,-12.95508 c 0,0 0.53678,-0.15405 0.73047,-0.20508 z m -134.30664,12.67188 c 3.9244,1.93863 6.57693,3.67447 6.89258,4.82031 0.80205,2.91155 23.25353,-6.64164 39.29101,11.73047 16.03726,4.93912 33.67961,8.64523 42.5,7.41016 8.77747,-1.22898 35.80466,-1.84295 45.55078,2.41015 3e-5,3.9e-4 0.004,0.0586 0.004,0.0586 0.0205,-0.0112 0.0476,-0.0202 0.0684,-0.0312 0.0254,0.0112 0.0588,0.0199 0.084,0.0312 0,0 0.006,-0.0717 0.006,-0.0723 8.08609,-4.23776 30.40402,-3.62411 37.65821,-2.39648 7.29762,1.23507 21.89351,-2.47104 35.16211,-7.41016 13.26871,-4.93924 31.84424,-8.026 32.50781,-11.73047 0.19275,-1.16542 2.45617,-2.88168 5.70312,-4.82031 -0.79827,0.56292 -1.40728,1.08887 -1.74804,1.56445 -2.65134,3.7011 -12.59481,12.95574 -27.17774,14.18945 -14.58289,1.23387 -23.19851,8.63536 -27.17578,9.86915 -3.97712,1.23371 -10.60565,4.93608 -27.83984,1.23437 -15.75492,-3.38342 -25.54184,2.78445 -27.17969,3.91016 -1.98173,-1.12678 -13.80951,-7.2932 -32.84961,-3.91016 -20.83041,3.70171 -28.84152,-6.6e-4 -33.64844,-1.23437 -4.80733,-1.23379 -6.29571,-14.88354 -23.92157,-16.11741 -17.62587,-1.23371 -38.57103,-4.24009 -41.77569,-7.94119 -0.41186,-0.47558 -1.14672,-1.00153 -2.11133,-1.56445 z M 3.15625,306.38672 v 0.0137 c -0.6424819,-0.0367 -1.2970135,0.0103 -1.9628906,0.0488 v 16.4082 c 0,0 -1.811e-4,2.46055 22.3749996,8.20313 22.375219,5.74299 24.50459,10.66488 11.71875,18.86914 -12.786066,8.20369 114.007511,-1.63983 109.746091,-8.20313 -4.26228,-6.56292 -27.70252,-20.51016 -56.4707,-17.22851 -28.768176,3.28184 -45.814652,-3.28108 -57.535156,-7.38282 C 20.039501,313.26972 12.797976,306.53261 3.15625,306.38672 Z m 1270.88285,0 c -7.9771,0.14589 -13.9697,6.883 -23.0606,10.72851 -9.697,4.10174 -23.8001,10.66466 -47.6015,7.38282 -23.8015,-3.28165 -43.1942,10.66559 -46.7208,17.22851 -3.5256,6.5633 101.3775,16.40682 90.7989,8.20313 -10.5784,-8.20426 -8.817,-13.12615 9.6953,-18.86914 18.5122,-5.74258 18.5117,-8.20313 18.5117,-8.20313 v -16.4082 c -0.551,-0.0386 -1.0914,-0.0855 -1.623,-0.0488 z M 77.416016,423.50781 c -23.316926,0.61932 -36.986328,8.66992 -36.986328,8.66992 24.925077,4.95243 51.458307,7.42913 55.478515,22.90625 4.020208,15.47706 -4.825255,38.38134 5.626957,66.24024 8.0403,-13.00086 24.12109,-30.33594 24.12109,-30.33594 0,-18.57267 -15.27474,-60.6704 -48.240234,-67.48047 z m 1135.183584,0 c -27.2742,6.81007 -39.9121,48.9078 -39.9121,67.48047 1.9649,18.38136 -5.7062,35.24495 -36.7734,50.76758 -51.7419,25.85261 -86.5334,17.74495 -127.5664,48.16406 54.5145,-25.08143 171.2476,-37.13798 184.2968,-68.5957 8.6478,-27.8589 1.3282,-50.76318 4.6543,-66.24024 3.3262,-15.47712 25.2785,-17.95382 45.9004,-22.90625 0,0 -11.3082,-8.0506 -30.5996,-8.66992 z m -450.48827,1.16602 c 0,0 -11.53301,10.95218 -24.68555,34.51562 3.65867,-2.29784 8.95677,-4.12513 17.05664,-4.8789 19.90281,-1.85235 7.62891,-29.63672 7.62891,-29.63672 z m -24.68555,34.51562 c -5.33133,3.34838 -7.18339,7.69561 -9.15039,11.17383 1.25111,-0.18524 2.45074,-0.39378 3.60352,-0.61914 1.86255,-3.76342 3.72026,-7.28222 5.54687,-10.55469 z m -5.54687,10.55469 c -0.64699,1.30728 -1.2944,2.64252 -1.94141,4.00977 3.99984,-2.47019 21.21875,-6.47852 21.21875,-6.47852 l -0.32422,-4.32227 c 0,0 -6.6577,4.38738 -18.95312,6.79102 z m -1.94141,4.00977 c -0.003,0.002 -0.008,0.004 -0.0117,0.006 h 0.008 c 10e-4,-0.002 0.003,-0.004 0.004,-0.006 z M 18.095703,435.26172 c -3.220422,-0.0505 3.497602,8.16485 1.945313,11.75 -1.602444,3.70133 -6.411005,8.63825 -20.03125037,12.33984 0,9.87024 0.80078125,93.76758 0.80078125,93.76758 0,0 23.23489512,-4.93598 34.45117212,-18.50781 11.216504,-13.57134 16.825944,-20.35751 60.890625,-0.61719 C 80.929994,522.89012 73.717424,523.5084 64.103516,517.95703 54.489078,512.40449 28.853278,495.7476 33.660156,467.37109 38.467526,438.9941 22.441317,435.9099 18.435547,435.29297 c -0.139843,-0.0189 -0.219782,-0.0261 -0.34375,-0.0274 z m 1243.583997,0 v 0.004 c -0.1018,0.001 -0.1703,0.008 -0.2851,0.0274 -3.3143,0.61693 -16.573,3.70113 -12.5957,32.07812 3.977,28.37651 -17.2329,45.0334 -25.1875,50.58594 -7.9542,5.55137 -13.9214,4.93309 -26.5156,16.03711 36.457,-19.74032 41.0988,-12.95415 50.3789,0.61719 9.2798,13.57183 28.5019,18.50781 28.5019,18.50781 0,0 0.6621,-83.89734 0.6621,-93.76758 -11.2686,-3.70159 -15.2445,-8.63851 -16.5703,-12.33984 -1.2843,-3.58515 4.2739,-11.8005 1.6094,-11.75 z M 13.626953,473.54492 c 0,0 4.806037,4e-4 10.414063,1.23438 -1.602444,16.65615 33.65039,43.18164 33.65039,43.18164 C 34.457214,514.25965 32.852475,544.48695 7.2148438,545.7207 27.244374,525.98046 10.422264,514.87792 5.6152344,496.98828 0.80831784,479.09857 8.8195075,479.71375 13.626953,473.54492 Z m 1251.748047,0 c 3.9774,6.16883 10.606,5.55365 6.6289,23.44336 -3.9771,17.88964 -17.8958,28.99218 -1.3242,48.73242 -21.2115,-1.23375 -22.5369,-31.46105 -41.7598,-27.75976 0,0 29.1656,-26.52549 27.8399,-43.18164 4.6398,-1.23398 8.6152,-1.23438 8.6152,-1.23438 z m -533.5625,34.41406 c -1.79402,-0.0786 -3.81679,0.36386 -6.07812,1.57032 -0.82031,2.71774 -2.64154,6.70181 -5.1875,11.54297 L 706.75,511.86523 c 0,0 -58.35493,43.93898 -62.54688,55.07422 -4.0004,10.70914 -10.88751,22.49856 -36.70312,40.52539 l -0.46094,-0.54296 c -0.91933,0.93456 -1.83539,1.84913 -2.74414,2.75195 -0.0276,0 -0.0575,0.028 -0.084,0.0469 l 0.008,0.0117 c -17.78582,17.64906 -33.3293,29.08431 -45.45898,35.73828 -7.24425,-2.5231 -12.74167,-6.34862 -16.41016,-8.52148 -5.21254,-3.08716 -46.50977,-16.36133 -46.50977,-16.36133 0,0 39.6958,14.20004 43.70508,16.66992 2.59901,1.60082 9.08834,6.16372 16.59766,9.61133 -5.35206,2.74325 -9.97169,4.50668 -13.70899,5.38281 -2.39723,0.56843 -6.54119,3.0741 -11.69336,6.76953 -0.12663,-0.0521 -0.29593,-0.10417 -0.41992,-0.15625 -13.23073,-5.55696 -38.08593,-26.85546 -38.08593,-26.85546 l -2.00586,5.86523 c 0,0 22.45346,17.28701 28.0664,22.84375 1.09764,1.08662 3.15752,2.26474 5.5918,3.45898 -8.09816,6.29062 -17.4886,14.21906 -26.35938,21.94922 -5.21297,-1.20866 -11.26506,-0.88425 -17.32226,-2.25586 -6.81559,-1.54359 -66.95553,-19.13881 -89.8086,-34.57421 v 0.008 c -1.20279,3.08746 3.60743,6.17383 3.60743,6.17383 0,0 66.15652,26.8573 85,31.17968 5.91141,1.35575 10.2314,2.43439 13.98437,3.4375 -14.54477,12.80613 -26.48633,23.92188 -26.48633,23.92188 l 0.76758,2.3125 c -8.45245,-1.03411 -18.27769,-1.79279 -28.01953,-1.7832 v -0.008 c -13.1413,0.0169 -26.09949,1.43206 -35.2207,5.44532 10.93702,0 45.46745,-0.15375 64.37304,-0.23438 l 3.65039,11.00391 c -5.80607,2.13414 -10.50423,3.59101 -13.58398,4.10937 -10.26973,12.52003 4.17578,20.64453 4.17578,20.64453 0,0 43.63616,-31.13523 67.59375,-44.53125 0.019,0.0182 0.0634,0.0524 0.082,0.0703 3.20712,3.08745 16.83959,8.65265 27.26367,8.95312 6.01444,-2.46951 8.82288,-19.75709 2.8086,-22.84375 -0.32217,-0.16582 -0.60561,-0.27257 -0.91211,-0.41406 8.43405,-3.82342 17.01247,-7.70231 25.18555,-11.82227 4.78634,2.36428 9.64391,4.86706 14.375,7.40039 -20.53302,17.35865 -58.82022,43.04244 -125.20313,76.29102 29.62668,9.75568 93.48069,-35.54603 136.42188,-70.16211 6.87989,3.83135 11.87695,6.72266 11.87695,6.72266 45.13504,27.74037 92.39033,15.19547 139.78516,0 0,0 38.14687,-26.85472 48.76171,-29.01563 10.61473,-2.16117 32.50638,-9.88091 37.15039,-15.4375 4.64376,-5.55674 23.22071,-22.84375 23.22071,-22.84375 l -1.65821,-5.86523 c 0,0 -20.5653,21.2985 -31.51171,26.85546 -10.94646,5.55678 -34.49917,11.11637 -39.80665,13.27735 -5.30755,2.16075 -18.24355,11.11241 -21.89257,13.58203 -3.64872,2.46947 -14.92578,11.42187 -14.92578,11.42187 -45.83615,3.8902 -90.41421,25.83489 -138.32422,0 0,0 -3.06417,-1.99913 -6.15821,-4 7.21561,-5.92073 13.47249,-11.22866 18.875,-15.88867 2.94745,0.53954 5.35969,0.86914 6.64844,0.86914 44.02828,-14.69348 75.85387,-3.80583 113.65039,-2.58984 4.64398,0 14.92571,-3.08763 23.21875,-9.57031 8.29274,-6.48314 16.91784,-13.58351 26.86914,-15.12696 9.95165,-1.54359 20.89771,-11.11252 24.21485,-13.58203 3.31717,-2.46988 36.1582,-16.66992 36.1582,-16.66992 0,0 -34.16784,13.27417 -38.48047,16.36133 -4.31218,3.08704 -11.60962,9.568 -21.89258,10.80273 -10.28315,1.235 -24.54577,10.18854 -29.85351,12.9668 -5.30733,2.77833 -18.90736,7.0998 -22.22461,6.79102 -32.67183,-1.64159 -50.47692,-10.64488 -103.80274,-3.01563 1.0166,-0.92292 2.94336,-2.6582 2.94336,-2.6582 l -0.76953,-0.91602 c 24.51269,-20.03792 76.17802,-64.93241 94.4707,-101.41797 v 0.01 c 5.04821,-10.06806 7.54782,-19.48913 6.23243,-27.56836 -86.71669,125.50394 -118.35013,117.20783 -101.70899,101.38476 16.63911,-15.82132 30.37282,-43.98611 44.625,-62.75 14.25211,-18.76372 47.11719,-52.16601 47.11719,-52.16601 0,0 -3.48179,-10.1125 -11.25586,-10.45313 z m -21.19531,30.41407 c -21.09294,34.7026 -57.20902,85.06202 -67.17578,90.19726 28.34762,-50.55231 52.13655,-76.92417 67.17578,-90.19726 z M 0.80664062,574.71484 v 19.74024 c 0,0 8.01133708,1.85129 40.05859338,-6.78516 32.046879,-8.63637 48.072266,-1.85156 48.072266,-1.85156 0,0 -32.84757,-1.23369 -40.859375,4.31836 -8.011729,5.55186 -16.82828,4.93672 -32.050781,7.4043 -15.22227427,2.46761 -33.647689,19.73926 -16.02148462,9.86914 C 17.6318,597.54003 25.644672,603.7091 33.65625,600.00781 c 8.011729,-3.70148 21.630171,-3.70201 38.455078,-5.55273 16.824832,-1.8505 32.849642,1.23277 44.066402,6.16797 4.96109,2.18264 30.05305,3.51387 55.88086,4.70117 C 140.80776,598.35919 111.61004,590.96948 98.548828,585.81836 65.700652,572.86399 52.082823,580.26636 43.269531,581.5 34.456693,582.7339 27.246104,577.18146 19.234375,576.56445 11.222457,575.9476 8.0171477,579.03314 0.80664062,574.71484 Z M 172.05859,605.32422 c 12.65787,2.821 25.61343,5.57274 38.02539,8.07422 12.80614,-0.59928 22.69299,-1.53178 24.72657,-2.90235 3.57464,-2.40793 -30.18842,-3.67499 -62.75196,-5.17187 z m 38.02539,8.07422 v 0.0117 c -27.54527,1.27717 -68.66313,1.01008 -74.67968,0.16796 -8.81235,-1.23378 -71.30444,-9.86854 -75.31055,15.42383 -4.005997,25.29222 -20.028846,39.48072 -28.841797,43.79883 -8.813178,4.31788 -30.44531238,0 -30.44531238,0 l 2.40429688,4.31641 c 0,0 11.2169765,3.08473 22.4335935,0.61719 11.216542,-2.46751 17.625521,0.61814 32.046875,-28.99219 14.421241,-29.61071 16.822621,-25.29414 24.033203,-27.76172 7.210772,-2.46758 40.859731,-2.46876 51.275391,-1.85156 10.41551,0.61678 20.0293,0 20.0293,0 0,0 -5.60768,3.08567 -10.41407,6.16992 -4.80744,3.08432 -31.24429,1.85011 -46.466792,6.78515 -15.222426,4.93516 -20.832032,5.55233 -20.832032,17.27344 0,11.72069 1.602554,9.87036 -12.017578,24.0586 -13.620132,14.18827 -62.49270376,7.40314 -61.6914061,9.2539 27.2400751,5.55179 70.5045261,3.08366 80.9199221,-25.91015 10.415357,-28.99367 28.841626,-27.14409 41.660156,-26.52735 12.81883,0.61682 27.24065,-3.08276 33.65039,-8.01758 4.51098,-3.47361 69.63512,-1.43875 103.1582,0.50196 -13.00966,-2.005 -31.21873,-5.34963 -50.91211,-9.31836 z m 50.91211,9.31836 c 9.45736,1.45753 16.17897,2.22317 18.70899,1.98242 4.03377,-0.36537 -4.60129,-1.16593 -18.70899,-1.98242 z M 1275.9824,574.71484 c -5.9657,4.3183 -8.6175,1.23276 -15.2461,1.84961 -6.6286,0.61701 -12.5934,6.16945 -19.8847,4.93555 -7.2917,-1.23364 -18.5593,-8.63601 -45.7364,4.31836 -10.8063,5.15112 -34.9626,12.54083 -60.8183,19.50586 21.3689,-1.1873 42.1277,-2.51853 46.2324,-4.70117 9.2803,-4.9352 22.539,-8.01847 36.459,-6.16797 13.9201,1.85072 25.188,1.85125 31.8164,5.55273 6.6285,3.70129 13.257,-2.46778 27.8398,7.40235 14.5831,9.87012 -0.6615,-7.40153 -13.2558,-9.86914 -12.5944,-2.46758 -19.8872,-1.85244 -26.5157,-7.4043 -6.6286,-5.55205 -33.8046,-4.31836 -33.8046,-4.31836 0,0 13.2573,-6.78481 39.7714,1.85156 26.5144,8.63645 33.1426,6.78516 33.1426,6.78516 z m -141.6855,30.60938 c -26.9418,1.49688 -54.8775,2.76394 -51.9199,5.17187 1.6824,1.37057 9.8636,2.30307 20.4589,2.90235 10.2691,-2.50148 20.9885,-5.25322 31.461,-8.07422 z m -31.461,8.07422 c -16.2935,3.96873 -31.3593,7.31336 -42.123,9.31836 27.7357,-1.94071 81.6174,-3.97557 85.3496,-0.50196 5.3031,4.93482 17.2341,8.6344 27.8398,8.01758 10.6056,-0.61674 25.8497,-2.46632 34.4668,26.52735 8.6172,28.99381 44.4141,31.46194 66.9512,25.91015 0.663,-1.85076 -39.7724,4.93437 -51.041,-9.2539 -11.2686,-14.18824 -9.9434,-12.33791 -9.9434,-24.0586 0,-11.72111 -4.6399,-12.33828 -17.2343,-17.27344 -12.5943,-4.93504 -34.4678,-3.70083 -38.4454,-6.78515 -3.9765,-3.08425 -8.6152,-6.16992 -8.6152,-6.16992 0,0 7.9529,0.61678 16.5703,0 8.6175,-0.6172 36.458,-0.61602 42.4239,1.85156 5.9657,2.46758 7.9532,-1.84899 19.8847,27.76172 11.9316,29.61033 17.2337,26.52468 26.5137,28.99219 9.2801,2.46754 18.5605,-0.61719 18.5605,-0.61719 l 1.9883,-4.31641 c 0,0 -17.8979,4.31788 -25.1894,0 -7.2915,-4.31811 -20.549,-18.50661 -23.8633,-43.79883 -3.3145,-25.29237 -55.0157,-16.65761 -62.3067,-15.42383 -4.9778,0.84212 -38.9973,1.10921 -61.7871,-0.16796 z m -42.123,9.31836 c -11.6721,0.81649 -18.8159,1.61705 -15.4785,1.98242 2.0931,0.24075 7.6538,-0.52489 15.4785,-1.98242 z m -107.06056,26.58008 c -18.90776,15.4354 -68.66563,33.03062 -74.30468,34.57421 -5.63921,1.54341 -11.27771,0.92684 -15.92188,2.7793 -4.64372,1.85227 -20.23512,7.40906 -27.20117,10.1875 -6.96578,2.77826 -10.28168,2.78028 -12.93555,0.61914 -2.65375,-2.16106 -5.30734,-3.39621 -10.2832,-0.30078 -4.97594,3.08666 -2.65371,20.37424 2.32226,22.84375 8.62451,-0.30047 19.90319,-5.86567 22.55665,-8.95312 2.65364,-3.08675 10.94489,-10.8053 16.58398,-14.50977 5.63913,-3.7042 10.28452,-5.55721 25.875,-9.87891 15.5904,-4.32238 70.32422,-31.17968 70.32422,-31.17968 0,0 3.97952,-3.08637 2.98437,-6.17383 z m -346.63672,11.1289 c -0.2069,0.25868 -0.47206,0.54195 -0.74609,0.82813 -0.22008,-0.0858 -0.45536,-0.17416 -0.66015,-0.25782 0.47837,-0.19082 0.92457,-0.37929 1.40624,-0.57031 z m -8.80078,3.57031 c 0.89198,0.57707 1.79893,1.14974 2.6836,1.72266 -3.79151,2.76037 -8.95455,6.05755 -15.0918,9.70117 -2.68982,-1.33271 -5.14075,-2.46435 -6.95312,-3.11133 6.1173,-2.73942 12.55482,-5.51294 19.36132,-8.3125 z m -269.77148,2.25 c -1.21451,-0.0738 -2.83626,0.40474 -4.76367,1.61914 -8.81318,5.55209 -12.01528,18.50516 -58.48438,17.27149 -46.46721,-1.23379 -33.64888,3.70224 -39.25781,5.55273 -5.60742,1.8508 -32.04485,8.02063 -44.0625,10.48828 -12.0178,2.46728 -21.63454,-0.61914 -27.24219,-0.61914 -5.60867,0 -26.43891,0.61694 -31.24609,0 -4.80684,-0.61685 -24.838109,-12.95457 -36.054689,-11.10351 -11.216541,1.85045 -28.037109,6.78651 -28.037109,9.87109 0,3.08444 -10.417391,5.55112 -15.22461,2.4668 -4.80684,-3.08459 -12.818149,-13.57266 -28.841796,-6.16992 -16.02357203,7.40269 -4.008053,3.70389 -8.0136722,5.55468 -4.0060347,1.85046 -5.6074219,2.4668 -5.6074219,2.4668 5.6081008,4.31822 10.4147071,1.23358 16.8242191,-4.31836 6.40936,-5.55209 12.82136,-2.46766 18.429687,3.70117 5.607912,6.1691 32.847257,6.78414 45.666016,4.31641 12.818608,-2.46743 38.457116,-3.69955 56.884766,11.72266 17.62567,0 122.58008,0.61718 122.58008,0.61718 0,0 -50.47663,-9.87071 -58.48828,-13.57226 8.81272,-3.70122 27.2414,-6.78544 33.65039,-11.72071 6.40962,-4.93568 16.02184,-4.93554 26.4375,-4.93554 10.41569,0 44.06369,-2.46686 57.68359,-9.86914 10.64084,-5.78347 11.5026,-13.07263 7.16797,-13.33985 z m 676.46684,0 c -3.5864,0.26722 -2.8742,7.55638 5.9296,13.33985 11.2686,7.40228 39.1072,9.86914 47.7247,9.86914 8.6175,0 16.5719,-1.4e-4 21.875,4.93554 5.3026,4.93527 20.5486,8.01949 27.8398,11.72071 -6.6285,3.70155 -48.3906,13.57226 -48.3906,13.57226 0,0 86.8351,-0.61718 101.4179,-0.61718 15.2462,-15.42221 36.457,-14.19009 47.0625,-11.72266 10.6057,2.46773 33.1435,1.85269 37.7832,-4.31641 4.6401,-6.16883 9.9453,-9.25326 15.2481,-3.70117 5.303,5.55194 9.2801,8.63658 13.9199,4.31836 0,0 -1.3263,-0.61634 -4.6406,-2.4668 -3.3141,-1.85079 6.6282,1.84801 -6.6289,-5.55468 -13.2572,-7.40274 -19.8844,3.08533 -23.8613,6.16992 -3.9773,3.08432 -12.5977,0.61764 -12.5977,-2.4668 0,-3.08458 -13.9173,-8.02064 -23.1973,-9.87109 -9.28,-1.85106 -25.8531,10.48666 -29.83,11.10351 -3.9773,0.61694 -21.2111,0 -25.8516,0 -4.6396,0 -12.5959,3.08642 -22.5391,0.61914 -9.9429,-2.46765 -31.8159,-8.63748 -36.455,-10.48828 -4.6407,-1.85049 5.9645,-6.78652 -32.4805,-5.55273 -38.4466,1.23367 -41.0952,-11.7194 -48.3867,-17.27149 -1.5947,-1.2144 -2.9367,-1.69299 -3.9414,-1.61914 z m -395.31645,3.7168 c 2.55368,1.00689 5.25612,1.96829 8.08984,2.84375 -2.00768,3.30286 -5.78561,7.81133 -11.84179,13.49024 -0.26747,-0.1562 -0.72408,-0.44729 -0.94727,-0.57227 -1.88211,-1.05392 -6.26894,-3.51299 -10.65039,-5.89649 5.52299,-3.1047 10.72612,-6.3623 15.34961,-9.86523 z m -41.90234,7.4668 c 2.46881,0.85156 5.37048,2.03836 8.58007,3.48242 -10.16284,5.72033 -21.91974,11.93982 -34.10156,18.08594 -2.46737,-0.0652 -5.59003,-0.7565 -9.84375,-2.16016 -0.2797,-0.0923 -0.86027,-0.26313 -1.16211,-0.36133 10.35203,-5.99983 22.43337,-12.39287 36.52735,-19.04687 z m -47.44727,25.60351 c 1.97709,1.42879 3.79795,2.80077 5.44727,4.11133 -11.36592,5.49959 -22.58092,10.69088 -32.625,15.06055 6.70036,-5.43793 15.60942,-11.93711 27.17773,-19.17188 z m 392.99024,11.50586 v 0.008 c -15.89008,-0.0189 -32.10305,2.93718 -39.19336,5.13671 0,0 56.72249,0.30079 68.33203,0.30079 -7.54643,-4.01326 -18.26611,-5.42842 -29.13867,-5.44532 z"
       transform="matrix(0.26458333,0,0,0.26458333,-414.02261,-804.97534)"
       sodipodi:nodetypes="cccccccccccccccscccccccccscsccssscssccccscssccccccsccsscccccccccccscccccccccccccccccccsscccccccsscscccccccsccccsccccsccsccccccsccssscsccccsscccscscccccccsssccccscccccscccccscscccccscccccsscccccscccccccsccsccssccccscscccccccccccccccccccccccccscccccsscccccccccssscccccccccssssccccsccscccccccccsscsscscccccsccccccccsccccccccccsccsccccsccsscccscsscssccsscccsccccccscccccssccccscccscsccccscccccccsssccccccccssccccsccscccccccccccccccccccccccscccccccccscccccsccccccccsccccsccccsccccccccccccccsccccccccccccccccccccccccccccccccscscccccccsccscccccccccsscscccccsssscsccccccccccccccsccsscsccccsscsscccccccscsscscssscscccccccccsscssscccsssccsssccccccsssccccccccccccccccccccsccsscscsccccccccssccccsscccccsccscscssccssccccscccccscccccccccccccccccsc" />
  </g>
  <g
     inkscape:groupmode="layer"
     id="layer3"
     inkscape:label="Layer 3"
     style="display:inline">
    <path
       id="path60"
       style="fill:url(#radialGradient38094);fill-opacity:1;stroke:none;stroke-width:0.73451;stroke-linecap:butt;stroke-linejoin:miter;stroke-opacity:1"
       d="M 733.88086 1.2871094 C 753.63724 28.321361 759.87625 62.633884 757.79688 88.628906 C 740.12002 78.230598 707.88629 71.993262 685.01172 101.10742 C 660.05633 78.231667 561.3147 23.424433 475.01172 45.259766 C 388.70893 67.095736 314.0227 124.90895 257.4707 137.94531 C 241.7069 141.57917 161.39065 140.41716 1.390625 105.88477 C 155.63525 211.78404 271.17383 190.5293 271.17383 190.5293 C 382.32247 175.93401 428.0195 130.49094 518.96484 146.58984 C 453.93103 138.15911 204.80936 202.08704 106.67969 321.15039 C 173.92232 298.10221 234.75286 291.26506 296.16992 304.76367 C 98.40324 315.12342 13.442977 397.66862 -34.902344 478.24414 C 16.896218 434.50314 59.226369 400.29621 105.26953 401.44727 C 39.57021 429.3079 2.8346391 498.41217 2.3183594 498.4082 L 0.18164062 717.61719 L 421.38672 716.66406 C 421.38672 716.66406 422.42552 639.71825 433.86328 612.68359 C 407.86848 637.63853 376.67573 682.35145 368.35742 702.10742 C 350.68101 667.79426 324.68639 530.54178 429.70508 371.45312 C 382.91453 463.99492 388.11242 564.85457 392.27148 588.76953 C 414.10699 559.65534 458.81916 510.78483 466.09766 505.58594 C 457.77941 545.09814 477.53402 639.72001 534.72266 702.10742 C 528.48402 652.19732 553.52043 565.8932 610.70898 531.58008 C 667.89751 497.26711 773.39718 510.78498 803.55078 622.04297 C 826.42694 582.53084 828.50781 552.37687 828.50781 540.93945 C 854.50272 563.81489 869.06055 615.80417 869.06055 638.67969 C 891.93527 607.48615 906.49087 474.3934 854.50195 415.125 C 848.26237 455.67703 827.46783 505.58664 737.00586 418.24414 C 760.92071 478.55213 687.65322 495.18769 616.94727 397.44727 C 591.99195 426.5615 579.43405 451.51594 558.63867 489.98828 C 566.95669 422.40171 596.62868 311.14401 616.38477 278.91016 C 636.14039 246.67711 653.81734 232.12162 682.93164 253.95703 C 712.04579 275.79275 719.32422 298.66797 719.32422 298.66797 C 719.32422 298.66797 741.15964 247.71832 755.7168 229.00195 C 770.27395 210.28567 816.02436 144.77759 898.16797 209.24414 C 906.48592 152.05577 836.82026 41.838678 733.88086 1.2871094 z M 810.35938 99.841797 C 823.02124 104.44611 836.83363 130.92071 827.625 126.31641 C 818.41637 121.71208 809.20828 111.35259 810.35938 99.841797 z M 574.73047 204.21875 C 582.58848 204.20975 590.58531 204.82529 598.70898 206.125 C 591.43007 244.59739 521.76292 269.5537 461.45508 248.75781 C 493.91582 222.43819 532.29941 204.25957 574.73047 204.21875 z M 623.58984 611.85938 C 583.03786 647.21221 569.52113 706.47916 574.7207 758.46875 C 574.7207 758.46875 666.22288 758.46998 690.13867 759.50977 C 677.66075 743.91283 632.94867 649.29193 623.58984 611.85938 z M 461.9375 662.59375 C 461.9375 662.59375 452.57953 683.3895 458.81836 715.62305 L 496.25195 715.62305 C 477.53551 697.94661 461.9375 662.59375 461.9375 662.59375 z "
       transform="scale(0.26458333)" />
    <path
       style="fill:url(#linearGradient34217);fill-opacity:1;stroke:none;stroke-width:0.0257094px;stroke-linecap:butt;stroke-linejoin:miter;stroke-opacity:1"
       d="m 251.12087,96.629531 c 0,0 -18.15744,-7.978254 -23.65956,-6.60265 -5.5023,1.375593 -11.82978,3.851567 -21.18374,8.803583 -9.35364,4.951956 -25.31013,9.078696 -37.41515,-6.602707 9.90409,4.676872 14.03069,3.576435 21.18364,-0.550128 7.15295,-4.126733 15.13116,-25.035336 25.03529,-29.161989 9.90385,-4.126642 23.93467,2.751242 27.23595,2.751242 3.30136,0 13.24403,0.579645 19.37466,-7.113411 6.78981,-7.292561 12.57638,-15.211023 27.49964,-17.647471 14.92327,-2.436448 31.06475,-1.827344 38.06955,-3.045568 7.0048,-1.218224 30.76019,-30.7601865 30.76019,-30.7601865 L 357.71679,135.22302 c 0,0 -26.22288,-36.878301 -46.90574,-31.19472 -18.78394,5.16176 -34.56002,6.94014 -59.69018,-7.398769 z"
       id="path35214"
       sodipodi:nodetypes="ccccccscssccsc" />
  </g>
</svg>
