<?xml version="1.0" encoding="UTF-8" standalone="no"?>
<!-- Created with Inkscape (http://www.inkscape.org/) -->

<svg
   width="420"
   height="600"
   viewBox="0 0 111.125 158.75"
   version="1.1"
   id="svg5"
   inkscape:version="1.1 (c68e22c387, 2021-05-23)"
   sodipodi:docname="background.svg"
   inkscape:export-filename="C:\Users\annar\code\mySite\dndGame\img\background.png"
   inkscape:export-xdpi="900.00598"
   inkscape:export-ydpi="900.00598"
   xmlns:inkscape="http://www.inkscape.org/namespaces/inkscape"
   xmlns:sodipodi="http://sodipodi.sourceforge.net/DTD/sodipodi-0.dtd"
   xmlns:xlink="http://www.w3.org/1999/xlink"
   xmlns="http://www.w3.org/2000/svg"
   xmlns:svg="http://www.w3.org/2000/svg">
  <sodipodi:namedview
     id="namedview7"
     pagecolor="#505050"
     bordercolor="#eeeeee"
     borderopacity="1"
     inkscape:pageshadow="0"
     inkscape:pageopacity="0"
     inkscape:pagecheckerboard="0"
     inkscape:document-units="mm"
     showgrid="false"
     inkscape:zoom="0.965"
     inkscape:cx="330.05181"
     inkscape:cy="237.3057"
     inkscape:window-width="1656"
     inkscape:window-height="1366"
     inkscape:window-x="895"
     inkscape:window-y="1"
     inkscape:window-maximized="0"
     inkscape:current-layer="layer2"
     inkscape:snap-global="true"
     fit-margin-top="0"
     fit-margin-left="0"
     fit-margin-right="0"
     fit-margin-bottom="0"
     units="px"
     height="1920px"
     inkscape:snap-page="true" />
  <defs
     id="defs2">
    <linearGradient
       inkscape:collect="always"
       id="linearGradient175810">
      <stop
         style="stop-color:#2e3131;stop-opacity:1;"
         offset="0"
         id="stop175806" />
      <stop
         style="stop-color:#2e3131;stop-opacity:0;"
         offset="1"
         id="stop175808" />
    </linearGradient>
    <radialGradient
       inkscape:collect="always"
       xlink:href="#linearGradient175810"
       id="radialGradient175812"
       cx="197.17873"
       cy="298.5477"
       fx="197.17873"
       fy="298.5477"
       r="227.10513"
       gradientTransform="matrix(1.8105853,0.92153344,-1.0419851,2.0472431,151.25211,-494.35881)"
       gradientUnits="userSpaceOnUse" />
  </defs>
  <g
     inkscape:label="Layer 1"
     inkscape:groupmode="layer"
     id="layer1"
     transform="translate(414.02261,804.97534)" />
  <g
     inkscape:groupmode="layer"
     id="layer2"
     inkscape:label="Layer 2"
     transform="translate(414.02261,804.97534)"
     style="display:inline">
    <rect
       style="fill:#171717;fill-opacity:1;stroke:none;stroke-width:0.188689"
       id="rect57860"
       width="111.12501"
       height="158.75002"
       x="-414.02261"
       y="-804.97534" />
    <path
       id="path80797"
       style="fill:url(#radialGradient175812);fill-opacity:1;stroke:none;stroke-width:0.0971694px;stroke-linecap:butt;stroke-linejoin:miter;stroke-opacity:1"
       d="M 402.92969 -3.3710938 C 400.65122 -3.2715851 397.64863 -2.4015071 393.75781 -0.033203125 C 381.90011 7.1845229 360.24797 16.339903 346.32812 16.855469 C 332.4082 17.371034 306.11372 27.167099 295.28711 34.900391 C 284.46054 42.633682 260.22956 53.974864 254.04297 55.521484 C 203.00328 63.254776 195.78587 84.391709 187.02148 92.125 C 178.2571 99.858291 166.39952 103.98276 160.21289 106.56055 C 154.0263 109.1383 139.59046 118.41986 130.31055 131.82422 C 121.0306 145.22858 95.254245 171.52127 83.912109 183.89453 L 101.94922 178.38086 C 100.7643 178.49084 99.432816 176.33758 120.51562 149.35156 C 146.29325 116.35621 150.41812 117.90321 165.36914 110.16992 C 180.32012 102.43667 205.0664 108.62336 218.98633 110.68555 C 232.90621 112.74777 242.70077 117.38796 281.36719 126.15234 C 320.03361 134.91669 330.3453 128.72932 341.17188 134.40039 C 351.99848 140.07146 376.7442 136.97889 377.25977 139.55664 C 394.27301 138.52555 397.36648 151.45166 406.13086 155.06055 C 414.89524 152.99832 419.53516 152.44531 419.53516 152.44531 C 419.53516 152.44531 430.87717 153.4769 418.50391 142.13477 C 406.13068 130.79259 409.74023 122.54297 409.74023 122.54297 C 409.74023 122.54297 426.75278 137.49417 419.01953 124.08984 C 397.36632 106.04551 416.95812 98.827659 396.85156 67.894531 C 376.74508 36.961404 338.70385 39.913074 321.06445 48.818359 C 269.10408 75.0507 262.47852 59.294922 262.47852 59.294922 C 262.47852 59.294922 298.89686 39.024307 315.39453 31.291016 C 331.89217 23.557762 355.09227 21.49566 372.10547 18.402344 C 389.11867 15.309027 409.22461 -0.54882812 409.22461 -0.54882812 C 409.22461 -0.54882812 407.81553 -3.1677296 403.86328 -3.3691406 C 403.56686 -3.3842587 403.25518 -3.3853093 402.92969 -3.3710938 z M 101.94922 178.38086 C 102.21303 178.35818 102.4707 178.22266 102.4707 178.22266 L 101.94922 178.38086 z M 247.78125 -1.3046875 L 227.21289 -0.79101562 C 227.21289 -0.79101562 223.09961 8.3521583 223.09961 11.4375 C 221.04271 14.522804 220.5293 -0.27539062 220.5293 -0.27539062 L 217.44336 -0.79101562 C 217.44336 -0.79101562 218.47153 16.579038 215.90039 21.207031 C 213.32933 25.834987 200.47306 36.633725 192.75977 41.261719 C 185.04651 45.889712 168.59255 56.688792 166.02148 66.458984 C 163.45039 76.229139 173.73383 81.370307 161.39258 83.941406 C 149.05129 86.512505 149.05251 89.599356 138.25391 91.65625 C 127.45527 93.713107 129.51144 95.769277 127.96875 97.826172 C 126.4261 99.883029 123.85541 101.42578 120.25586 101.42578 C 116.65635 101.42578 114.59813 108.11001 110.48438 111.19531 C 106.37059 114.28065 106.37146 121.47921 98.658203 128.16406 C 96.963878 129.63248 96.509888 130.14308 96.810547 130.00977 C 94.948306 131.1539 93.240014 132.15929 91.972656 132.79297 C 84.479225 136.53967 77.88632 148.29673 75.207031 152.32422 C 71.138937 153.39528 63.891918 155.87268 61.144531 157.09375 C 56.512569 159.15238 41.072479 169.44531 33.867188 169.44531 C 26.661934 169.44531 12.2512 172.53427 4.53125 169.96094 C -3.1886618 167.38761 -19.143428 165.84375 -23.775391 165.84375 C -9.3648457 164.29978 -13.482461 160.18168 -11.423828 158.12305 C -9.3651573 156.06441 6.5897077 150.9181 11.736328 145.77148 C 16.882949 140.62486 26.66292 131.87608 33.353516 128.27344 C 40.044149 124.67079 41.586944 114.37606 40.042969 111.80273 C 38.498956 109.22944 40.043799 103.5685 45.705078 98.421875 C 51.366395 93.275217 51.366935 79.893701 60.630859 74.232422 C 68.886764 69.187154 83.269066 58.015223 94.316406 53.457031 C 87.375476 55.134227 80.895483 57.500747 76.070312 60.851562 C 66.80635 66.512841 60.630859 71.144531 60.630859 71.144531 C 60.630859 63.939278 75.555577 55.706025 78.128906 57.25 C 83.275527 54.676709 121.53813 25.737529 152.09766 14.359375 C 152.09766 14.359375 138.6915 12.789932 135.60352 16.392578 C 132.51553 21.859816 76.584043 54.291801 73.496094 53.646484 C 68.458286 52.593659 57.541093 63.940381 55.482422 66.513672 C 53.423789 69.087001 49.30668 75.777208 47.248047 80.923828 C 45.189376 86.070449 38.500039 96.878867 36.441406 98.9375 C 34.382735 100.99613 31.80958 106.14153 31.294922 109.74414 C 30.780264 113.34679 29.751103 122.61216 25.119141 126.21484 C 20.487178 129.81745 16.882871 133.41984 13.794922 137.53711 C 10.706934 141.65441 2.9885338 149.37293 -6.2753906 153.49023 C -15.539315 157.60754 -16.570176 161.72654 -21.716797 162.75586 C -26.863417 163.78521 -28.921875 163.78516 -28.921875 163.78516 L -29.435547 152.97656 C -29.435547 152.97656 -19.658223 150.40246 -18.628906 146.28516 C -9.3649818 143.19721 3.5019531 135.47852 3.5019531 135.47852 C 3.5019531 135.47852 9.1629793 134.96405 12.765625 129.30273 C 16.368271 123.64146 15.853516 122.61133 15.853516 122.61133 C 15.853516 122.61133 27.176651 104.59874 30.779297 100.99609 C 21.515335 107.17207 13.28125 121.58203 13.28125 121.58203 C 13.28125 121.58203 5.0470292 120.55239 0.9296875 132.9043 C -2.6729204 135.99228 -20.171875 143.71289 -20.171875 143.71289 C -20.171875 143.71289 -25.318263 140.10926 -28.40625 144.22656 C -31.4942 148.34387 -28.921875 185.40039 -28.921875 185.40039 C -22.7459 181.79774 -5.2472162 182.31248 0.4140625 183.3418 C 6.075379 184.37115 17.398165 181.28332 27.691406 177.16602 C 37.984647 173.04875 52.395498 170.47471 52.910156 167.38672 C 53.072063 166.41528 54.815291 164.98502 57.333984 163.36914 C 56.714844 163.8383 56.242723 164.27752 55.978516 164.67383 C 53.921621 167.75917 46.207338 175.47354 34.894531 176.50195 C 23.581687 177.5304 16.897842 183.70007 13.8125 184.72852 C 10.727196 185.75696 5.5845445 188.84315 -7.7851562 185.75781 C -21.154895 182.67251 -29.382812 189.35742 -29.382812 189.35742 L -28.869141 216.0957 C -19.098986 211.98195 -10.871121 207.86829 1.984375 206.83984 C 14.839871 205.8114 43.637732 199.64235 51.865234 188.84375 C 60.092737 178.04511 64.204925 171.87437 69.861328 168.78906 C 75.517731 165.70376 90.429813 142.04898 97.628906 136.39258 C 104.828 130.73614 125.3986 115.82406 132.59766 108.625 C 139.79675 101.42594 138.25265 101.94005 144.9375 105.02539 C 151.62235 108.11073 156.76465 102.96799 164.99219 92.683594 C 173.21969 82.399159 167.54184 63.336724 181.42578 60.765625 C 195.30972 58.194526 228.24118 65.429335 249.32422 47.431641 C 268.43507 31.117489 288.40129 18.631235 311.11719 12.986328 C 313.88657 13.41562 316.18499 13.940815 317.20117 14.521484 C 320.80068 16.578379 332.1137 17.093687 337.25586 13.494141 C 342.3981 9.894632 362.45312 0.23828125 362.45312 0.23828125 L 352.68359 -0.27539062 C 352.68359 -0.27539062 338.28481 10.922154 333.14258 12.464844 C 329.19259 13.649836 323.095 13.310146 314.66406 12.160156 C 315.84778 11.906704 317.03136 11.653341 318.23047 11.4375 C 343.9415 6.8095063 351.6543 -0.27539062 351.6543 -0.27539062 L 341.36914 -0.79101562 C 341.36914 -0.79101562 328.51518 6.8083399 319.77344 8.8652344 C 317.19275 9.4724482 313.58416 10.298001 309.35938 11.382812 C 308.38501 11.232462 307.42891 11.086127 306.40234 10.921875 C 293.54689 8.8650183 287.37698 12.465731 274.52148 13.494141 C 261.66599 14.522588 255.49483 11.437284 249.32422 13.494141 C 243.15357 15.551035 247.26871 18.12169 233.38477 21.207031 C 219.50082 24.292335 218.4707 25.320312 218.4707 25.320312 C 218.4707 25.320312 226.69985 17.607575 229.78516 11.951172 C 232.8705 6.2947309 236.98391 1.78125 241.09766 1.78125 C 245.21141 1.78125 247.78125 -1.3046875 247.78125 -1.3046875 z M 94.316406 53.457031 C 114.02749 48.694075 137.47852 49.535156 137.47852 49.535156 C 137.47852 49.535156 137.50304 43.314085 98.201172 52.101562 C 96.969145 52.437566 95.665251 52.900491 94.316406 53.457031 z M 70.923828 -0.27539062 C 49.307992 0.75396371 14.310547 0.23828125 14.310547 0.23828125 C 1.4439768 5.89956 1.9580751 23.2821 0.4140625 27.914062 C -1.1299123 32.546025 -1.6437359 53.647431 -29.435547 55.191406 L -28.921875 63.939453 C -28.921875 63.939453 -1.1302223 60.337021 10.707031 56.734375 C 22.544285 53.131729 42.101446 50.043395 46.21875 35.632812 C 50.336054 21.22223 54.969271 2.2979385 70.923828 -0.27539062 z M 298.0957 12.011719 C 300.42551 11.986411 303.07408 12.125205 305.67383 12.347656 C 295.98778 15.006014 283.50066 19.130064 270.4082 25.835938 C 249.3252 36.634539 231.33002 62.361727 196.28711 55.138672 C 192.17336 46.396927 221.55734 44.862052 228.24219 38.691406 C 234.92704 32.520761 239.55396 25.834517 245.72461 25.320312 C 251.89526 24.80607 255.49609 21.72149 255.49609 19.150391 C 255.49609 16.579291 259.09561 15.550781 268.35156 15.550781 C 277.60755 15.550781 288.40489 15.037363 291.49023 12.980469 C 292.45438 12.337689 294.97536 12.045614 298.0957 12.011719 z M 351.75781 55.929688 C 356.71491 55.953928 361.64417 57.243118 365.99414 62.197266 C 384.55404 83.334878 382.57946 113.77831 405.7793 134.40039 C 382.57946 134.40039 316.94044 127.69835 296.31836 121.51172 C 275.69627 115.32509 260.22911 118.93502 250.43359 115.32617 C 240.63812 111.71729 208.15848 100.88889 182.38086 102.43555 C 187.02083 96.764441 189.59856 103.98378 195.78516 99.859375 C 201.97179 95.734928 219.65733 66.573905 227.39062 64.511719 C 235.12392 62.449495 254.71587 61.416606 261.93359 65.541016 C 269.15132 69.665425 274.30695 75.854168 290.28906 66.574219 C 298.77954 61.644279 327.25278 57.481017 337.35742 57.248047 C 341.81537 57.145244 346.80072 55.905447 351.75781 55.929688 z M 122.67969 106.75391 C 124.77913 106.88836 126.07335 108.01383 125.39844 109.13867 C 124.10738 111.29039 107.41564 123.44731 97.154297 129.79297 C 99.274907 128.38204 109.29309 120.02633 113.05664 113.25195 C 115.94913 108.04546 119.98041 106.58103 122.67969 106.75391 z M 202.14844 118.25391 C 190.98024 118.18605 179.17476 121.85048 168.46094 124.60547 C 150.4166 129.24544 149.38579 140.58665 142.68359 145.74219 C 135.98143 150.89769 128.24805 162.24002 128.24805 174.61328 C 136.4969 152.9601 140.62233 157.60147 149.38672 143.16602 C 158.1511 128.73056 168.97721 129.24582 173.61719 127.18359 C 178.25716 125.12137 211.76904 119.45074 222.08008 130.27734 C 232.39112 141.10395 256.62115 144.19721 271.05664 143.68164 C 280.31861 143.35085 283.00865 139.62844 290.00586 138.90625 C 283.26859 139.21581 275.40337 139.55664 266.41602 139.55664 C 241.66948 139.55664 239.60711 137.49436 223.625 125.12109 C 217.13227 120.09447 209.78984 118.30033 202.14844 118.25391 z M 290.00586 138.90625 C 290.97033 138.86193 291.85486 138.82714 292.77148 138.78516 C 291.77042 138.7723 290.85892 138.8182 290.00586 138.90625 z M 292.77148 138.78516 C 296.35694 138.83122 301.01593 139.59699 307.66016 141.61914 C 331.37556 148.83687 326.73639 146.77446 327.25195 153.99219 C 327.76748 161.20991 331.37689 172.5523 330.86133 169.45898 C 330.34576 166.36567 330.34592 160.69413 331.89258 152.44531 C 333.43924 144.19649 321.06544 142.13439 314.36328 139.55664 C 310.44364 138.04907 303.08245 138.31292 292.77148 138.78516 z M 417.50977 255.70703 C 411.32146 255.83227 406.67341 261.44284 399.62109 264.64844 C 392.09866 268.06774 381.1576 273.53817 362.69336 270.80273 C 344.22916 268.0673 329.18465 279.6932 326.44922 285.16406 C 323.71379 290.63493 405.09302 298.84055 396.88672 292.00195 C 388.68038 285.16335 390.04717 281.06044 404.4082 276.27344 C 418.76927 271.48644 418.76953 269.43555 418.76953 269.43555 L 418.76953 255.75781 C 418.34212 255.71507 417.92232 255.69868 417.50977 255.70703 z M 369.84766 353.33594 C 348.68948 359.01252 338.88477 394.10435 338.88477 409.58594 C 338.88477 409.58594 349.20666 424.03593 354.36719 434.87305 C 361.07585 411.65065 355.39827 392.55759 357.97852 379.65625 C 360.5588 366.75495 377.58829 364.69088 393.58594 360.5625 C 393.58594 360.5625 384.81319 353.85199 369.84766 353.33594 z M 407.92383 363.13672 C 407.85693 363.13781 407.78558 363.14516 407.70508 363.16406 C 405.13398 363.67831 394.84829 366.25016 397.93359 389.9043 C 401.01894 413.55843 384.56518 427.44232 378.39453 432.07031 C 372.22389 436.69827 367.59437 436.1835 357.82422 445.43945 C 386.10631 428.98441 389.70716 434.64032 396.90625 445.95312 C 404.10531 457.26597 419.01758 461.38086 419.01758 461.38086 C 419.01758 461.38086 419.53125 391.44625 419.53125 383.21875 C 410.78951 380.13341 407.70423 376.0189 406.67578 372.93359 C 405.6795 369.94471 409.99085 363.09634 407.92383 363.13867 L 407.92383 363.13672 z M 410.78906 395.04492 C 413.8744 400.18712 419.01694 399.67355 415.93164 414.58594 C 412.84634 429.49833 402.0488 438.75394 414.9043 455.20898 C 398.44929 454.18054 397.4202 428.98306 382.50781 432.06836 C 382.50781 432.06836 405.13388 409.95816 404.10547 396.07422 C 407.70498 395.04573 410.78906 395.04492 410.78906 395.04492 z M 419.01758 479.37695 C 414.38962 482.9765 412.33169 480.40568 407.18945 480.91992 C 402.04725 481.43413 397.42008 486.06161 391.76367 485.0332 C 386.10727 484.00476 377.36624 477.83417 356.2832 488.63281 C 347.90006 492.92661 329.1611 499.08681 309.10352 504.89258 C 325.68032 503.90287 341.78451 502.79418 344.96875 500.97461 C 352.16784 496.86086 362.45331 494.28938 373.25195 495.83203 C 384.05055 497.37468 392.7914 497.3756 397.93359 500.46094 C 403.07579 503.54624 408.21841 498.40332 419.53125 506.63086 C 430.84409 514.85836 419.0182 500.46119 409.24805 498.4043 C 399.47785 496.34744 393.81993 496.86042 388.67773 492.23242 C 383.5355 487.60447 362.45312 488.63281 362.45312 488.63281 C 362.45312 488.63281 372.73788 482.97669 393.30664 490.17578 C 413.87543 497.37484 419.01758 495.83203 419.01758 495.83203 L 419.01758 479.37695 z M 309.10352 504.89258 C 288.20281 506.14044 266.53197 507.19569 268.82617 509.20312 C 270.13173 510.34547 276.47813 511.12365 284.69727 511.62305 C 292.66352 509.53799 300.97928 507.24418 309.10352 504.89258 z M 284.69727 511.62305 C 272.05719 514.93142 260.36953 517.71938 252.01953 519.39062 C 273.53593 517.77301 315.33518 516.07731 318.23047 518.97266 C 322.34426 523.08641 331.60058 526.17049 339.82812 525.65625 C 348.05563 525.14205 359.88156 523.59924 366.56641 547.76758 C 373.25129 571.93592 401.02042 573.99323 418.50391 569.36523 C 419.01811 567.82262 387.64995 573.47939 378.9082 561.65234 C 370.16646 549.82526 371.19531 551.36785 371.19531 541.59766 C 371.19531 531.8275 367.59437 531.31297 357.82422 527.19922 C 348.05403 523.08547 331.0853 524.11403 328 521.54297 C 324.9147 518.97187 321.31641 516.40039 321.31641 516.40039 C 321.31641 516.40039 327.48702 516.91463 334.17188 516.40039 C 340.85673 515.88619 362.45404 515.88646 367.08203 517.94336 C 371.70999 520.00022 373.25186 516.4014 382.50781 541.08398 C 391.76376 565.76653 395.87708 563.19506 403.07617 565.25195 C 410.27526 567.30881 417.47461 564.73828 417.47461 564.73828 L 419.01758 561.13867 C 419.01758 561.13867 405.13297 564.73822 399.47656 561.13867 C 393.82016 557.53916 383.53591 545.71194 380.96484 524.62891 C 378.39374 503.54587 338.28535 510.74499 332.62891 511.77344 C 328.76762 512.47547 302.37655 512.69724 284.69727 511.62305 z M 252.01953 519.39062 C 242.96482 520.07136 237.42254 520.73836 240.01172 521.04297 C 241.63567 521.23402 245.94953 520.60553 252.01953 519.39062 z M 101.28906 517.61523 C 101.28906 517.61523 74.782835 528.68058 71.4375 531.25391 C 68.092202 533.8272 62.430385 539.23041 54.453125 540.25977 C 46.475865 541.28908 35.412226 548.75238 31.294922 551.06836 C 27.177618 553.38434 16.626064 556.9859 14.052734 556.72852 L 20.228516 588.12305 C 20.228516 588.12305 49.822033 565.73687 58.056641 563.93555 C 66.291248 562.13422 83.274307 555.70032 86.876953 551.06836 C 90.479561 546.43636 104.89062 532.02539 104.89062 532.02539 L 103.60352 527.13672 C 103.60352 527.13672 87.650159 544.89144 79.158203 549.52344 C 70.666285 554.1554 52.394648 558.78852 48.277344 560.58984 C 44.160002 562.39113 34.125561 569.85348 31.294922 571.91211 C 28.464283 573.97078 19.714844 581.43359 19.714844 581.43359 C 19.714844 581.43359 16.112352 569.0812 15.597656 563.41992 C 19.20034 563.41992 27.176128 560.84733 33.609375 555.44336 C 40.042698 550.03943 46.733175 544.12065 54.453125 542.83398 C 62.173075 541.54732 70.66499 533.57035 73.238281 531.51172 C 75.81161 529.45309 101.28906 517.61523 101.28906 517.61523 z M 168.9668 541.54688 C 154.2989 554.41345 115.69883 569.08052 111.32422 570.36719 C 106.9496 571.65385 102.5753 571.13962 98.972656 572.68359 C 95.370011 574.22757 83.275062 578.8598 77.871094 581.17578 C 72.467125 583.4918 69.894608 583.49273 67.835938 581.69141 C 65.777304 579.89005 63.717378 578.86026 59.857422 581.43359 C 55.997428 584.00692 57.800163 598.41793 61.660156 600.47656 C 68.350752 600.21925 77.09957 595.587 79.158203 593.01367 C 81.216874 590.44038 87.648823 584.00596 92.023438 580.91797 C 96.398089 577.82998 100.00114 576.28624 112.0957 572.68359 C 124.19027 569.08095 166.65039 546.69336 166.65039 546.69336 C 166.65039 546.69336 169.73877 544.1202 168.9668 541.54688 z M 208.73047 555.67578 C 205.94815 555.89666 206.50059 561.9741 213.33008 566.79492 C 222.07179 572.96553 243.66867 575.02148 250.35352 575.02148 C 257.0384 575.02148 263.20848 575.02297 267.32227 579.13672 C 271.43602 583.25051 283.26348 585.82091 288.91992 588.90625 C 283.77772 591.99159 251.38086 600.21875 251.38086 600.21875 C 251.38086 600.21875 318.7438 599.70508 330.05664 599.70508 C 341.88369 586.84958 358.3389 587.8767 366.56641 589.93359 C 374.79395 591.99049 392.27744 591.47817 395.87695 586.33594 C 399.4765 581.19374 403.59129 578.62201 407.70508 583.25 C 411.81883 587.87796 414.90436 590.44916 418.50391 586.84961 C 418.50391 586.84961 417.47543 586.33562 414.9043 584.79297 C 412.33324 583.25032 420.04612 586.33471 409.76172 580.16406 C 399.47732 573.99342 394.33534 582.73554 391.25 585.30664 C 388.16466 587.87774 381.47852 585.82106 381.47852 583.25 C 381.47852 580.67886 370.68151 576.56417 363.48242 575.02148 C 356.28333 573.47883 343.4271 583.7631 340.3418 584.27734 C 337.25646 584.79155 323.88666 584.27734 320.28711 584.27734 C 316.6876 584.27734 310.51603 586.84983 302.80273 584.79297 C 295.08944 582.73607 278.12103 577.59347 274.52148 576.05078 C 270.92194 574.50813 279.14896 570.39347 249.32422 571.42188 C 219.49944 572.45032 217.44351 561.65338 211.78711 557.02539 C 210.54977 556.01302 209.50952 555.61394 208.73047 555.67578 z M 137.61133 595.9375 C 125.28423 595.91689 112.70749 598.38526 107.20703 600.21875 C 107.20703 600.21875 151.21018 600.47656 160.2168 600.47656 C 154.36251 597.13124 146.04566 595.9516 137.61133 595.9375 z "
       transform="matrix(0.26458333,0,0,0.26458333,-414.02261,-804.97534)" />
    <path
       style="fill:#2e3131;fill-opacity:1;stroke:none;stroke-width:0.0257094px;stroke-linecap:butt;stroke-linejoin:miter;stroke-opacity:1"
       d="m -409.21507,-676.87415 c 1.63405,-1.02129 2.383,-1.08937 2.99577,-1.02129 0.61277,0.0681 4.15322,-1.90639 4.15322,-1.90639 l -0.0681,-1.49789 c 0,0 -1.63405,1.49789 -6.87664,1.83831 0.68085,-0.54468 6.46813,-1.49788 7.5575,-1.29362 0.61277,-0.4766 0.0681,-1.15745 0.0681,-1.15745 0,0 -2.38299,0.88511 -3.60853,1.15745 -1.22554,0.27234 -2.8596,0.27234 -4.01705,0.74894 -1.15746,0.4766 -0.68086,-1.4298 7.28516,-2.79151 -1.9064,-1.63405 -9.32773,2.45109 -9.32773,2.45109 z"
       id="path117346" />
    <path
       style="fill:#2e3131;fill-opacity:1;stroke:none;stroke-width:0.0257094px;stroke-linecap:butt;stroke-linejoin:miter;stroke-opacity:1"
       d="m -402.47459,-696.00621 c 0.81702,-0.54468 4.35747,-1.4298 4.35747,-1.4298 l -0.0681,-0.9532 c 0,0 -1.63406,1.15746 -4.62982,1.63406 0.68085,-1.29363 1.29363,-3.13194 5.37876,-3.54045 4.08514,-0.40851 1.56597,-6.53622 1.56597,-6.53622 0,0 -3.3362,3.40428 -6.6043,10.82561 z"
       id="path120813" />
    <path
       id="path60"
       style="fill:#0f0f0f;fill-opacity:1;stroke:none;stroke-width:0.194339;stroke-linecap:butt;stroke-linejoin:miter;stroke-opacity:1"
       d="m -340.85818,-770.41781 c 3.43782,4.70438 4.52349,10.67534 4.16162,15.19879 -3.07595,-1.80938 -8.68503,-2.89502 -12.66566,2.17124 -4.34251,-3.98063 -19.72222,-9.58969 -34.74007,-5.78999 -15.01784,3.79969 -37.45411,11.39906 -37.45411,11.39906 l 0.18091,9.95156 c 0,0 27.68351,-10.85625 44.32979,-7.41843 -10.31346,-0.18093 -21.35066,3.07596 -44.5107,12.12286 v 24.24564 c 0,0 6.69468,-1.4475 11.94188,0.54281 -5.97096,0 -10.85626,2.17124 -11.94188,2.71405 0,4.52345 -0.10425,59.11281 -0.10425,59.11281 l 23.98801,0.2348 c 0,0 0.18097,-13.38938 2.17129,-18.09376 -4.52345,4.3425 -9.95162,12.12281 -11.39912,15.56063 -3.07595,-5.97095 -7.59939,-29.85471 10.67533,-57.53821 -8.1422,16.10347 -7.23752,33.65444 -6.51377,37.81601 3.79969,-5.06626 11.58006,-13.57032 12.84663,-14.47501 -1.4475,6.87564 1.9903,23.34094 11.94188,34.19721 -1.08563,-8.68502 3.61873,-23.70286 13.57031,-29.67381 9.95158,-5.97094 25.87412,-3.61874 31.12131,15.74161 3.98063,-6.87564 4.34253,-12.12281 4.34253,-14.11312 4.52345,3.98062 7.05659,13.02751 7.05659,17.00814 3.98063,-5.42814 6.51376,-28.58817 -2.53313,-38.90163 -1.08563,7.05658 -4.70439,15.74159 -20.44598,0.54281 4.16157,10.49439 -6.15188,13.38941 -18.45565,-3.61876 -4.34251,5.06627 -6.87566,9.40875 -10.49442,16.10345 1.4475,-11.76096 9.04687,-31.12131 12.48469,-36.73039 3.43782,-5.60907 6.51378,-8.14217 11.58004,-4.34248 5.06626,3.79969 6.3328,7.78031 6.3328,7.78031 0,0 3.79973,-8.86596 6.33286,-12.12284 2.53313,-3.25688 10.49436,-14.65593 24.78846,-3.43779 1.4475,-9.95157 -10.67534,-29.131 -28.58819,-36.18757 z m -27.69427,35.313 c 1.36733,-0.002 2.75878,0.10559 4.17236,0.33176 -1.26657,6.6947 -13.38937,11.03719 -23.88376,7.41843 5.64865,-4.57999 12.32781,-7.74304 19.7114,-7.75019 z" />
    <path
       style="fill:#0f0f0f;fill-opacity:1;stroke:#000000;stroke-width:0.0257094px;stroke-linecap:butt;stroke-linejoin:miter;stroke-opacity:1"
       d="m -391.15887,-646.11353 c -1.08563,-5.60907 0.54281,-9.22783 0.54281,-9.22783 0,0 2.71407,6.15189 5.97095,9.22783 -1.62844,0 -6.51376,0 -6.51376,0 z"
       id="path28826" />
    <path
       style="fill:#0f0f0f;fill-opacity:1;stroke:none;stroke-width:0.0257094px;stroke-linecap:butt;stroke-linejoin:miter;stroke-opacity:1"
       d="m -371.79852,-646.11353 c -0.90469,-9.04689 1.4475,-19.36035 8.50407,-25.51223 1.62844,6.51376 9.40878,22.9791 11.58002,25.69317 -4.16156,-0.18094 -20.08409,-0.18094 -20.08409,-0.18094 z"
       id="path30967" />
    <path
       style="fill:#0f0f0f;fill-opacity:1;stroke:none;stroke-width:0.0257094px;stroke-linecap:butt;stroke-linejoin:miter;stroke-opacity:1"
       d="m -357.50443,-709.98458 c 6.51376,3.07594 9.22783,2.35219 13.93221,-0.36188 4.70438,-2.71406 9.95158,-16.46534 16.46534,-19.17941 6.51376,-2.71406 15.74159,1.80938 17.91285,1.80938 2.17125,0 4.70438,0.18094 6.33282,-3.07594 -0.18094,4.70438 -0.54281,23.70285 -0.54281,23.70285 0,0 -11.9419,-5.2472 -15.56066,-4.34251 -3.61875,0.90469 -7.78032,2.53313 -13.93221,5.79002 -6.15189,3.25688 -16.64628,5.97095 -24.60754,-4.34251 z"
       id="path35214" />
  </g>
</svg>
